<?xml version="1.0" encoding="UTF-8" standalone="no"?>
<svg
   version="1.1"
   width="34.63826"
   height="41.85498"
   viewBox="0 0 34.63826 41.85498"
   xml:space="preserve"
   id="svg3"
   xmlns="http://www.w3.org/2000/svg"
   xmlns:svg="http://www.w3.org/2000/svg"><defs
   id="defs3" />
<g
   style="opacity:1;fill:none;fill-rule:nonzero;stroke:none;stroke-width:0;stroke-linecap:butt;stroke-linejoin:miter;stroke-miterlimit:10;stroke-dasharray:none"
   transform="matrix(0.46505532,0,0,0.46505532,-3.608359,-6.7592101e-6)"
   id="g3">
	<path
   d="m 69.313,54.442 c -0.397,0 -0.798,-0.118 -1.147,-0.363 -0.904,-0.636 -1.122,-1.883 -0.487,-2.786 L 77.797,36.894 67.679,22.495 c -0.635,-0.904 -0.417,-2.151 0.487,-2.786 0.904,-0.637 2.151,-0.417 2.786,0.486 l 10.926,15.549 c 0.484,0.69 0.484,1.61 0,2.3 L 70.952,53.592 c -0.389,0.554 -1.009,0.85 -1.639,0.85 z"
   style="opacity:1;fill:#ffffff;fill-rule:nonzero;stroke:none;stroke-width:1;stroke-linecap:butt;stroke-linejoin:miter;stroke-miterlimit:10;stroke-dasharray:none"
   stroke-linecap="round"
   id="path1" />
	<path
   d="m 57.693,30.092 c 1.104,0 2,-0.896 2,-2 V 2 c 0,-1.104 -0.896,-2 -2,-2 H 9.759 C 9.746,0 9.735,0.003 9.722,0.004 9.685,0.004 9.648,0.012 9.611,0.015 9.489,0.024 9.371,0.042 9.257,0.072 9.211,0.083 9.168,0.098 9.124,0.113 9.011,0.151 8.903,0.198 8.8,0.255 8.775,0.269 8.747,0.274 8.723,0.289 8.711,0.296 8.703,0.307 8.692,0.314 8.562,0.397 8.44,0.491 8.332,0.601 8.313,0.62 8.299,0.643 8.281,0.662 8.196,0.757 8.12,0.859 8.053,0.969 8.029,1.009 8.008,1.05 7.987,1.091 7.935,1.192 7.893,1.297 7.858,1.407 7.845,1.449 7.83,1.489 7.82,1.532 7.783,1.683 7.759,1.838 7.759,2 v 69.787 c 0,0.17 0.028,0.333 0.068,0.49 0.011,0.043 0.025,0.083 0.039,0.124 0.04,0.123 0.091,0.239 0.152,0.35 0.019,0.033 0.034,0.068 0.054,0.1 0.086,0.135 0.185,0.26 0.3,0.371 0.022,0.021 0.047,0.037 0.07,0.058 0.102,0.09 0.214,0.169 0.333,0.237 0.021,0.012 0.037,0.03 0.058,0.042 l 31.016,16.213 c 0.29,0.153 0.608,0.228 0.926,0.228 0.359,0 0.718,-0.097 1.036,-0.289 0.598,-0.362 0.964,-1.012 0.964,-1.711 V 73.787 h 14.918 c 1.104,0 2,-0.896 2,-2 V 45 c 0,-1.104 -0.896,-2 -2,-2 -1.104,0 -2,0.896 -2,2 V 69.787 H 42.775 V 18.213 c 0,-0.745 -0.414,-1.428 -1.074,-1.772 L 17.902,4 h 37.791 v 24.092 c 0,1.104 0.896,2 2,2 z"
   style="opacity:1;fill:#ffffff;fill-rule:nonzero;stroke:none;stroke-width:1;stroke-linecap:butt;stroke-linejoin:miter;stroke-miterlimit:10;stroke-dasharray:none"
   stroke-linecap="round"
   id="path2" />
	<path
   d="M 80.241,38.894 H 47.536 c -1.104,0 -2,-0.896 -2,-2 0,-1.104 0.896,-2 2,-2 h 32.705 c 1.104,0 2,0.896 2,2 0,1.104 -0.895,2 -2,2 z"
   style="opacity:1;fill:#ffffff;fill-rule:nonzero;stroke:none;stroke-width:1;stroke-linecap:butt;stroke-linejoin:miter;stroke-miterlimit:10;stroke-dasharray:none"
   stroke-linecap="round"
   id="path3" />
</g>
</svg>
