<?xml version="1.0" encoding="UTF-8" standalone="no"?>
<!-- Created with Inkscape (http://www.inkscape.org/) -->

<svg
   width="400mm"
   height="100mm"
   viewBox="0 0 400 99.999996"
   version="1.1"
   id="svg1"
   inkscape:version="1.4.3 (0d15f75, 2025-12-25)"
   sodipodi:docname="send_button.svg"
   xmlns:inkscape="http://www.inkscape.org/namespaces/inkscape"
   xmlns:sodipodi="http://sodipodi.sourceforge.net/DTD/sodipodi-0.dtd"
   xmlns:xlink="http://www.w3.org/1999/xlink"
   xmlns="http://www.w3.org/2000/svg"
   xmlns:svg="http://www.w3.org/2000/svg">
  <sodipodi:namedview
     id="namedview1"
     pagecolor="#ffffff"
     bordercolor="#000000"
     borderopacity="0.25"
     inkscape:showpageshadow="2"
     inkscape:pageopacity="0.0"
     inkscape:pagecheckerboard="0"
     inkscape:deskcolor="#d1d1d1"
     inkscape:document-units="mm"
     inkscape:zoom="0.71891835"
     inkscape:cx="808.85402"
     inkscape:cy="116.14671"
     inkscape:window-width="1920"
     inkscape:window-height="1009"
     inkscape:window-x="1592"
     inkscape:window-y="-8"
     inkscape:window-maximized="1"
     inkscape:current-layer="layer1" />
  <defs
     id="defs1">
    <rect
       x="641.24111"
       y="155.7896"
       width="315.75213"
       height="86.24067"
       id="rect3" />
    <linearGradient
       id="linearGradient2"
       inkscape:collect="always">
      <stop
         style="stop-color:#a69fa8;stop-opacity:1;"
         offset="0.48743719"
         id="stop2" />
      <stop
         style="stop-color:#a69fa8;stop-opacity:0;"
         offset="1"
         id="stop3" />
    </linearGradient>
    <linearGradient
       inkscape:collect="always"
       xlink:href="#linearGradient2"
       id="linearGradient3"
       x1="200.00003"
       y1="-130"
       x2="200.00003"
       y2="230.00011"
       gradientUnits="userSpaceOnUse" />
  </defs>
  <g
     inkscape:label="Layer 1"
     inkscape:groupmode="layer"
     id="layer1"
     style="opacity:0.77748691">
    <rect
       style="fill:#454148;fill-opacity:1;stroke-width:0.264583"
       id="rect1"
       width="375"
       height="75"
       x="12.5"
       y="12.5"
       ry="11.408922" />
    <rect
       style="fill:url(#linearGradient3);stroke-width:0.264583"
       id="rect2"
       width="360"
       height="60"
       x="20"
       y="20"
       ry="11.040893" />
    <path
       style="font-size:14.1111px;-inkscape-font-specification:sans-serif;white-space:pre;inline-size:41.4904;fill:#ffffff;stroke-width:0.264583"
       d="m 209.0422,46.387654 q 0,0.599446 -0.2825,1.185112 -0.2756,0.585666 -0.77859,0.992187 -0.55121,0.440971 -1.28846,0.689018 -0.73036,0.248047 -1.76389,0.248047 -1.10932,0 -1.99815,-0.206706 -0.88195,-0.206705 -1.79834,-0.613226 V 46.97332 h 0.0965 q 0.77859,0.647677 1.79834,0.999077 1.01975,0.351399 1.91547,0.351399 1.2678,0 1.9706,-0.475423 0.70968,-0.475423 0.70968,-1.267794 0,-0.682128 -0.33761,-1.005967 -0.33073,-0.323839 -1.01286,-0.502984 -0.51677,-0.137803 -1.1231,-0.227376 -0.59945,-0.08957 -1.27469,-0.227376 -1.36425,-0.289388 -2.02571,-0.985296 -0.65457,-0.702799 -0.65457,-1.8259 0,-1.288464 1.08865,-2.108396 1.08865,-0.826823 2.76296,-0.826823 1.08176,0 1.98438,0.206706 0.90261,0.206706 1.59852,0.509874 v 1.612303 h -0.0965 q -0.58567,-0.496093 -1.5434,-0.819932 -0.95085,-0.330729 -1.94993,-0.330729 -1.09554,0 -1.76388,0.454752 -0.66146,0.454753 -0.66146,1.171332 0,0.640787 0.33073,1.005967 0.33073,0.36518 1.16444,0.558105 0.44097,0.09646 1.25401,0.234266 0.81305,0.137804 1.37804,0.282498 1.14377,0.303168 1.72255,0.916395 0.57877,0.613226 0.57877,1.715656 z m 8.53005,-0.785481 h -5.67062 q 0,0.709689 0.2136,1.240233 0.21359,0.523654 0.58566,0.861273 0.35829,0.330729 0.84749,0.496094 0.4961,0.165364 1.08865,0.165364 0.78548,0 1.57786,-0.310058 0.79926,-0.316949 1.13688,-0.620117 h 0.0689 v 1.412488 q -0.65457,0.275608 -1.3367,0.461643 -0.68213,0.186035 -1.43316,0.186035 -1.91547,0 -2.99034,-1.033528 -1.07487,-1.040418 -1.07487,-2.949 0,-1.887911 1.02664,-2.99723 1.03353,-1.10932 2.71474,-1.10932 1.55718,0 2.39778,0.909504 0.84749,0.909505 0.84749,2.58382 z m -1.2609,-0.992187 q -0.007,-1.019747 -0.51677,-1.577852 -0.50298,-0.558106 -1.53651,-0.558106 -1.04041,0 -1.66053,0.613227 -0.61323,0.613227 -0.69591,1.522731 z m 9.66004,4.705997 h -1.29535 v -4.382158 q 0,-0.530545 -0.062,-0.992187 -0.062,-0.468533 -0.22737,-0.73036 -0.17226,-0.289387 -0.4961,-0.427191 -0.32383,-0.144694 -0.8406,-0.144694 -0.53054,0 -1.10932,0.261827 -0.57877,0.261827 -1.10932,0.668348 v 5.746415 h -1.29535 v -7.696338 h 1.29535 v 0.854383 q 0.60634,-0.502983 1.25402,-0.785481 0.64767,-0.282497 1.3298,-0.282497 1.24712,0 1.90169,0.75103 0.65457,0.75103 0.65457,2.163518 z m 8.73675,0 h -1.29535 v -0.806152 q -0.55811,0.482313 -1.16444,0.75103 -0.60634,0.268718 -1.31603,0.268718 -1.37803,0 -2.19108,-1.061089 -0.80615,-1.061089 -0.80615,-2.942109 0,-0.978407 0.27561,-1.743217 0.2825,-0.764811 0.75792,-1.302245 0.46853,-0.523654 1.08865,-0.799262 0.62701,-0.275607 1.29535,-0.275607 0.60634,0 1.07487,0.130913 0.46854,0.124024 0.9853,0.392741 v -3.33485 h 1.29535 z m -1.29535,-1.894801 v -4.416609 q -0.52365,-0.234267 -0.93707,-0.323839 -0.41341,-0.08957 -0.90261,-0.08957 -1.08865,0 -1.69499,0.75792 -0.60633,0.75792 -0.60633,2.149738 0,1.371147 0.46853,2.087726 0.46853,0.709689 1.50206,0.709689 0.55122,0 1.11621,-0.241156 0.565,-0.248047 1.0542,-0.633897 z"
       id="text2"
       transform="matrix(2.2337467,0,0,2.9721828,-280.77854,-82.210961)"
       aria-label="Send" />
  </g>
</svg>
